<svg width="485" height="883" viewBox="0 0 485 883" fill="none" xmlns="http://www.w3.org/2000/svg">
<path fill-rule="evenodd" clip-rule="evenodd" d="M119.801 873.028L485 662.211V220.789L102.5 0L-280 220.789V662.211L102.5 883L119.801 873.028ZM259.147 712.851L102.5 803.223L-210.795 622.323V260.522L102.5 79.6211L415.795 260.522V622.323L259.147 712.851Z" fill="#151F29"/>
<path fill-rule="evenodd" clip-rule="evenodd" d="M119.646 717.681L350.486 584.46V298.54L102.5 155.347L-145.486 298.54V584.46L102.5 727.653L119.646 717.681ZM192.124 596.302L102.656 648.032L-76.1246 544.883V338.117L102.656 234.968L281.281 338.117V544.883L192.124 596.302Z" fill="#151F29"/>
<path fill-rule="evenodd" clip-rule="evenodd" d="M119.801 562.334L159.236 539.585L215.972 506.864V376.292L159.236 343.571L102.5 310.85L45.764 343.571L-10.9719 376.292V506.864L45.764 539.585L102.5 572.306L119.801 562.334ZM124.633 479.908L102.5 492.685L80.3667 479.908H80.2108L58.2335 467.287V415.868L80.2108 403.247H80.3667L102.5 390.471L124.633 403.247H124.789L146.766 415.868V467.287L124.633 479.908Z" fill="#151F29"/>
</svg>
