<svg width="179" height="59" viewBox="0 0 179 59" fill="none" xmlns="http://www.w3.org/2000/svg">
<path d="M64.2845 8.82266C64.2845 8.82266 54.7724 6.93556 49.2256 9.98646V0.026619H35.5035V6.34135C35.5035 6.34135 35.7338 11.6726 27.158 12.7293C18.5822 13.7859 0.087822 19.1172 0.087822 37.199V58.3284C0.087822 58.3284 8.48528 59.7677 12.531 52.1095C12.531 52.1095 20.1266 59.3471 35.5055 54.8663C35.5055 54.8663 44.9816 51.3809 47.779 41.7817C50.5764 32.1825 45.4334 21.4122 58.0928 20.3555C58.0928 20.3555 67.4086 19.3155 67.2934 32.3329C67.1783 45.3503 65.2307 56.2503 75.804 56.3867L80.9942 56.3728V31.0207C80.9942 31.0207 81.8027 13.6269 64.2878 8.82266H64.2845ZM35.63 34.033L35.5747 33.9884C35.7722 35.7897 35.4299 37.6089 34.5914 39.2153C33.7529 40.8216 32.456 42.1426 30.8653 43.0105C29.2746 43.8783 27.4619 44.2539 25.6574 44.0896C23.8528 43.9253 22.1378 43.2285 20.73 42.0876C19.3222 40.9467 18.2852 39.4132 17.7507 37.6818C17.2161 35.9504 17.208 34.0993 17.7276 32.3633C18.2471 30.6273 19.2707 29.0849 20.6685 27.9318C22.0663 26.7788 23.7752 26.0671 25.5783 25.8871L25.5224 25.8418C32.8219 25.0034 36.1071 23.779 36.1071 23.779C35.5469 27.1661 35.3867 30.6072 35.63 34.0317" fill="white"/>
<path d="M0 0H5.07574C5.07574 0 10.8907 0.122436 12.8291 4.75302C13.2348 5.80585 13.4517 6.92196 13.4699 8.05012C13.4452 9.71963 13.4699 10.1674 13.4699 10.1674C13.4699 10.1674 4.12088 12.4458 0 20.7701V0Z" fill="white"/>
<path d="M93.8839 26V11.2518L93.6148 8.56051L93.8839 6.94575H98.7551V26H93.8839ZM107.624 26V11.2518L102.242 11.5209V6.94575H117.986V11.5209L112.468 11.2518V21.694L112.764 24.3852L112.468 26H107.624ZM94.153 57V42.3056L93.6148 39.5605L94.153 37.9457H107.475L108.82 38.7531L107.044 42.5209L104.622 42.2518H98.7282L98.9973 45.2122H106.237V49.3837H102.98L98.9973 49.1146V52.7209L99.2934 55.4121L98.9973 57H94.153ZM112.477 57L111.939 55.3852L112.477 52.694V37.9457H125.799L127.144 38.7531L125.368 42.5209L122.946 42.2518H117.321V45.2122H124.561V49.3837H121.385L117.321 49.1146V52.694H125.368L128.571 55.2776L126.983 57H112.477ZM138.541 57.2691C137.554 57.2691 136.621 57.1794 135.742 57C134.863 56.8026 134.101 56.5694 133.455 56.3003C132.809 56.0311 132.333 55.78 132.028 55.5467V50.7293C132.89 51.2138 133.975 51.6713 135.285 52.1019C136.595 52.5145 138.048 52.7209 139.645 52.7209C140.291 52.7209 140.766 52.6401 141.071 52.4787C141.394 52.2992 141.555 51.9942 141.555 51.5636C141.555 51.0971 141.197 50.7114 140.479 50.4064C139.779 50.0834 138.667 49.6887 137.142 49.2222C135.958 48.8454 134.944 48.4328 134.101 47.9842C133.275 47.5177 132.638 46.9436 132.19 46.2618C131.759 45.5621 131.544 44.6739 131.544 43.5974C131.544 42.485 131.831 41.4803 132.405 40.5832C132.979 39.6861 133.876 38.9774 135.096 38.4571C136.316 37.9368 137.877 37.6766 139.779 37.6766C140.353 37.6766 140.963 37.7035 141.609 37.7574C142.273 37.7932 142.802 37.8471 143.197 37.9188L146.238 40.1526L145.189 43.436L138.81 41.6866C138.075 41.6866 137.528 41.8391 137.169 42.1441C136.828 42.4492 136.657 42.817 136.657 43.2476C136.657 43.7679 136.953 44.1805 137.545 44.4856C138.138 44.7906 138.99 45.0956 140.102 45.4006C141.86 45.885 143.224 46.4233 144.193 47.0154C145.162 47.6074 145.844 48.2803 146.238 49.0338C146.633 49.7694 146.83 50.6037 146.83 51.5367C146.83 53.2591 146.14 54.6496 144.758 55.7082C143.377 56.7488 141.304 57.2691 138.541 57.2691ZM155.179 57V42.2518L149.796 42.5209V37.9457H165.54V42.5209L160.023 42.2518V52.694L160.319 55.3852L160.023 57H155.179Z" fill="white"/>
<rect x="131.92" y="3.73718" width="32.4455" height="24.2917" stroke="white" stroke-width="0.679487"/>
<path d="M140.413 14.696V13.1006C140.413 13.1006 140.486 13.0547 140.632 12.9629C140.777 12.8711 140.964 12.7448 141.194 12.5841C141.423 12.4234 141.672 12.2436 141.94 12.0447C142.208 11.8457 142.46 11.6391 142.697 11.4249C143.042 11.1265 143.329 10.8625 143.558 10.6329C143.788 10.3957 143.96 10.1624 144.075 9.93281C144.19 9.70326 144.247 9.43928 144.247 9.14086C144.247 8.65115 143.922 8.4063 143.271 8.4063C142.95 8.4063 142.625 8.44839 142.296 8.53255C141.974 8.60907 141.676 8.70089 141.401 8.80801C141.133 8.91514 140.922 9.00696 140.769 9.08347V7.1323C140.991 7.00987 141.347 6.87214 141.837 6.71911C142.326 6.56607 142.923 6.48956 143.627 6.48956C144.622 6.48956 145.349 6.69998 145.808 7.12082C146.267 7.53401 146.497 8.16145 146.497 9.00313C146.497 9.43928 146.416 9.82951 146.256 10.1738C146.095 10.5182 145.888 10.8281 145.636 11.1035C145.383 11.3713 145.112 11.6047 144.821 11.8036C144.538 12.0026 144.266 12.1709 144.006 12.3087C143.746 12.4387 143.532 12.5459 143.363 12.63L143.421 12.8596L146.497 12.63V14.696H140.413Z" fill="white"/>
<path d="M152.733 14.8108C152.082 14.8108 151.497 14.6768 150.977 14.409C150.464 14.1412 150.059 13.7051 149.76 13.1006C149.462 12.4885 149.313 11.6659 149.313 10.6329C149.313 9.60761 149.462 8.79271 149.76 8.18823C150.059 7.57609 150.464 7.13612 150.977 6.86831C151.497 6.59285 152.082 6.45512 152.733 6.45512C153.391 6.45512 153.976 6.59285 154.489 6.86831C155.002 7.14377 155.407 7.58757 155.706 8.19971C156.004 8.80419 156.153 9.61527 156.153 10.6329C156.153 11.6506 156.004 12.4655 155.706 13.0776C155.407 13.6898 155.002 14.1336 154.489 14.409C153.976 14.6768 153.391 14.8108 152.733 14.8108ZM152.733 12.8137C153.146 12.8137 153.456 12.653 153.663 12.3316C153.877 12.0102 153.984 11.444 153.984 10.6329C153.984 9.82186 153.877 9.25564 153.663 8.93427C153.456 8.6129 153.146 8.45221 152.733 8.45221C152.327 8.45221 152.017 8.61672 151.803 8.94574C151.589 9.27477 151.482 9.83716 151.482 10.6329C151.482 11.4287 151.589 11.9911 151.803 12.3201C152.017 12.6492 152.327 12.8137 152.733 12.8137Z" fill="white"/>
<path d="M140.413 24.684V23.0886C140.413 23.0886 140.486 23.0427 140.632 22.9509C140.777 22.8591 140.964 22.7328 141.194 22.5721C141.423 22.4114 141.672 22.2316 141.94 22.0327C142.208 21.8337 142.46 21.6271 142.697 21.4129C143.042 21.1145 143.329 20.8505 143.558 20.621C143.788 20.3837 143.96 20.1504 144.075 19.9208C144.19 19.6913 144.247 19.4273 144.247 19.1289C144.247 18.6392 143.922 18.3943 143.271 18.3943C142.95 18.3943 142.625 18.4364 142.296 18.5206C141.974 18.5971 141.676 18.6889 141.401 18.796C141.133 18.9032 140.922 18.995 140.769 19.0715V17.1203C140.991 16.9979 141.347 16.8602 141.837 16.7071C142.326 16.5541 142.923 16.4776 143.627 16.4776C144.622 16.4776 145.349 16.688 145.808 17.1088C146.267 17.522 146.497 18.1495 146.497 18.9911C146.497 19.4273 146.416 19.8175 146.256 20.1619C146.095 20.5062 145.888 20.8161 145.636 21.0915C145.383 21.3593 145.112 21.5927 144.821 21.7917C144.538 21.9906 144.266 22.1589 144.006 22.2967C143.746 22.4267 143.532 22.5339 143.363 22.618L143.421 22.8476L146.497 22.618V24.684H140.413Z" fill="white"/>
<path d="M152.239 24.684V18.8419H150.862V17.017L154.351 16.5579L154.466 17.2466L154.351 18.3943V24.684H152.239Z" fill="white"/>
</svg>
