<svg width="503" height="372" viewBox="0 0 503 372" fill="none" xmlns="http://www.w3.org/2000/svg">
<path d="M1.87941 154.275V51.2826L0 32.4884L1.87941 21.212H35.8968V154.275H1.87941Z" fill="white"/>
<path d="M97.8323 154.275V51.2826L60.244 53.162V21.212H170.19V53.162L131.662 51.2826V124.204L133.729 142.998L131.662 154.275H97.8323Z" fill="white"/>
<path d="M3.75883 369.275V266.658L0 247.488L3.75883 236.212H96.7899L106.187 241.85L93.7828 268.162L76.8681 266.283H35.7089L37.5883 286.956H88.1445V316.087H65.4036L37.5883 314.208V339.392L39.6557 358.186L37.5883 369.275H3.75883Z" fill="white"/>
<path d="M131.721 369.275L127.962 357.998L131.721 339.204V236.212H224.752L234.149 241.85L221.744 268.162L204.83 266.283H165.55V286.956H216.106V316.087H193.929L165.55 314.208V339.204H221.744L244.11 357.246L233.021 369.275H131.721Z" fill="white"/>
<path d="M313.737 371.154C306.846 371.154 300.331 370.527 294.191 369.275C288.052 367.896 282.727 366.267 278.216 364.388C273.706 362.509 270.386 360.755 268.256 359.126V325.484C274.27 328.867 281.85 332.062 290.996 335.069C300.143 337.951 310.292 339.392 321.443 339.392C325.954 339.392 329.274 338.828 331.404 337.7C333.659 336.447 334.787 334.317 334.787 331.31C334.787 328.053 332.281 325.359 327.269 323.229C322.383 320.974 314.614 318.217 303.964 314.959C295.695 312.328 288.616 309.446 282.727 306.314C276.964 303.056 272.516 299.047 269.383 294.286C266.376 289.399 264.873 283.197 264.873 275.68C264.873 267.911 266.877 260.895 270.887 254.63C274.896 248.366 281.161 243.416 289.681 239.783C298.201 236.149 309.102 234.333 322.383 234.333C326.392 234.333 330.652 234.52 335.163 234.896C339.799 235.147 343.495 235.523 346.251 236.024L367.489 251.623L360.159 274.552L315.617 262.336C310.48 262.336 306.658 263.401 304.152 265.531C301.772 267.661 300.582 270.229 300.582 273.236C300.582 276.87 302.649 279.752 306.784 281.882C310.918 284.012 316.87 286.142 324.638 288.272C336.917 291.655 346.439 295.414 353.205 299.548C359.971 303.683 364.732 308.381 367.489 313.644C370.245 318.781 371.623 324.607 371.623 331.122C371.623 343.151 366.8 352.861 357.152 360.253C347.504 367.52 333.033 371.154 313.737 371.154Z" fill="white"/>
<path d="M429.923 369.275V266.283L392.335 268.162V236.212H502.281V268.162L463.753 266.283V339.204L465.82 357.998L463.753 369.275H429.923Z" fill="white"/>
<rect x="267.498" y="2.37255" width="226.578" height="169.637" stroke="white" stroke-width="4.7451"/>
<path d="M326.812 78.9017V67.7607C326.812 67.7607 327.319 67.4401 328.335 66.7988C329.35 66.1576 330.659 65.276 332.262 64.1538C333.865 63.0317 335.602 61.776 337.472 60.3867C339.342 58.9974 341.105 57.5547 342.762 56.0585C345.166 53.9746 347.17 52.1311 348.773 50.5281C350.376 48.8716 351.579 47.2419 352.38 45.6388C353.182 44.0358 353.582 42.1923 353.582 40.1084C353.582 36.6886 351.311 34.9787 346.769 34.9787C344.525 34.9787 342.254 35.2726 339.957 35.8604C337.712 36.3947 335.628 37.0359 333.705 37.784C331.835 38.5321 330.365 39.1733 329.296 39.7076V26.0819C330.846 25.2269 333.331 24.2651 336.751 23.1964C340.17 22.1277 344.338 21.5934 349.254 21.5934C356.201 21.5934 361.277 23.0628 364.483 26.0017C367.689 28.8872 369.292 33.2688 369.292 39.1466C369.292 42.1923 368.731 44.9175 367.609 47.322C366.487 49.7266 365.044 51.8907 363.281 53.8143C361.517 55.6845 359.62 57.3142 357.59 58.7035C355.613 60.0928 353.716 61.2684 351.899 62.2302C350.082 63.1386 348.586 63.8867 347.411 64.4744L347.811 66.0775L369.292 64.4744V78.9017H326.812Z" fill="white"/>
<path d="M412.843 79.7032C408.301 79.7032 404.213 78.7681 400.579 76.8979C396.999 75.0277 394.167 71.982 392.083 67.7607C389.999 63.4859 388.957 57.7417 388.957 50.5281C388.957 43.3679 389.999 37.6771 392.083 33.4558C394.167 29.1811 396.999 26.1086 400.579 24.2384C404.213 22.3148 408.301 21.3529 412.843 21.3529C417.438 21.3529 421.526 22.3148 425.106 24.2384C428.686 26.162 431.518 29.2612 433.602 33.536C435.686 37.7573 436.728 43.4213 436.728 50.5281C436.728 57.6349 435.686 63.3256 433.602 67.6004C431.518 71.8751 428.686 74.9743 425.106 76.8979C421.526 78.7681 417.438 79.7032 412.843 79.7032ZM412.843 65.7569C415.728 65.7569 417.892 64.6348 419.335 62.3905C420.831 60.1463 421.579 56.1921 421.579 50.5281C421.579 44.864 420.831 40.9099 419.335 38.6657C417.892 36.4214 415.728 35.2993 412.843 35.2993C410.01 35.2993 407.846 36.4481 406.35 38.7458C404.854 41.0435 404.106 44.9709 404.106 50.5281C404.106 56.0853 404.854 60.0127 406.35 62.3104C407.846 64.608 410.01 65.7569 412.843 65.7569Z" fill="white"/>
<path d="M326.812 148.651V137.51C326.812 137.51 327.319 137.19 328.335 136.549C329.35 135.907 330.659 135.026 332.262 133.904C333.865 132.781 335.602 131.526 337.472 130.136C339.342 128.747 341.105 127.304 342.762 125.808C345.166 123.724 347.17 121.881 348.773 120.278C350.376 118.621 351.579 116.992 352.38 115.389C353.182 113.786 353.582 111.942 353.582 109.858C353.582 106.438 351.311 104.728 346.769 104.728C344.525 104.728 342.254 105.022 339.957 105.61C337.712 106.144 335.628 106.786 333.705 107.534C331.835 108.282 330.365 108.923 329.296 109.457V95.8316C330.846 94.9767 333.331 94.0149 336.751 92.9462C340.17 91.8775 344.338 91.3431 349.254 91.3431C356.201 91.3431 361.277 92.8126 364.483 95.7515C367.689 98.6369 369.292 103.019 369.292 108.896C369.292 111.942 368.731 114.667 367.609 117.072C366.487 119.476 365.044 121.64 363.281 123.564C361.517 125.434 359.62 127.064 357.59 128.453C355.613 129.843 353.716 131.018 351.899 131.98C350.082 132.888 348.586 133.636 347.411 134.224L347.811 135.827L369.292 134.224V148.651H326.812Z" fill="white"/>
<path d="M409.396 148.651V107.854H399.778V95.1103L424.144 91.9042L424.945 96.7133L424.144 104.728V148.651H409.396Z" fill="white"/>
</svg>
