<svg width="477" height="835" viewBox="0 0 477 835" fill="none" xmlns="http://www.w3.org/2000/svg">
<path fill-rule="evenodd" clip-rule="evenodd" d="M281.969 159.29C263.574 143.428 243.674 129.724 222.674 118.288L155.88 367.87L-129.93 444.453L-264.052 310.303C-272.58 336.088 -278.032 362.855 -280.247 389.999L-150.339 519.979L211.317 423.073L281.969 159.29ZM-271.242 500.025L-171.501 599.771L269.54 481.595L338.939 222.546C344.414 230.42 349.605 238.588 354.487 247.044C448.576 410.012 392.739 618.397 229.772 712.487C66.8045 806.576 -141.581 750.739 -235.671 587.772C-251.933 559.605 -263.716 530.081 -271.242 500.025ZM-110.956 122.329C-20.3815 70.0361 84.2223 64.0541 175.436 97.0363L153.066 103.031L97.7837 309.315L-108.895 364.694L-184.227 289.347L-232.329 241.261C-203.56 193.516 -162.647 152.173 -110.956 122.329Z" fill="#151F29"/>
</svg>
