<svg width="195" height="156" viewBox="0 0 195 156" fill="none" xmlns="http://www.w3.org/2000/svg">
<g clip-path="url(#clip0)">
<path d="M276 152.561V156C267.532 156 263.141 151.623 259.377 147.559C255.614 143.808 252.164 140.056 245.264 140.056C238.364 140.056 234.914 143.495 231.15 147.559C227.386 151.623 222.995 156 214.527 156C206.059 156 201.668 151.623 197.905 147.559C194.141 143.808 190.691 140.056 183.791 140.056C176.891 140.056 173.441 143.495 169.677 147.559C165.914 151.623 161.523 156 153.055 156C144.586 156 140.195 151.623 136.432 147.559C132.668 143.808 129.218 140.056 122.318 140.056C115.418 140.056 111.968 143.495 108.205 147.559C104.441 151.623 100.05 156 91.5818 156C83.1136 156 78.7227 151.623 74.9591 147.559C71.1955 143.808 67.7455 140.056 60.8455 140.056C53.9455 140.056 50.4955 143.495 46.7318 147.559C42.9682 151.623 38.5773 156 30.1091 156C21.6409 156 17.25 151.623 13.4864 147.559C10.35 143.808 6.9 140.056 0 140.056V136.617C8.46818 136.617 12.8591 140.994 16.6227 145.058C20.3864 148.81 23.8364 152.561 30.7364 152.561C37.6364 152.561 41.0864 149.122 44.85 145.058C48.6136 140.994 53.0045 136.617 61.4727 136.617C69.9409 136.617 74.3318 140.994 78.0955 145.058C81.8591 148.81 85.3091 152.561 92.2091 152.561C99.1091 152.561 102.559 149.122 106.323 145.058C110.086 140.994 114.477 136.617 122.945 136.617C131.414 136.617 135.805 140.994 139.568 145.058C143.332 148.81 146.782 152.561 153.682 152.561C160.582 152.561 164.032 149.122 167.795 145.058C171.559 140.994 175.95 136.617 184.418 136.617C192.886 136.617 197.277 140.994 201.041 145.058C204.805 148.81 208.255 152.561 215.155 152.561C222.055 152.561 225.505 149.122 229.268 145.058C233.032 140.994 237.423 136.617 245.891 136.617C254.359 136.617 258.75 140.994 262.514 145.058C265.65 148.81 269.1 152.561 276 152.561Z" fill="#C83C32"/>
<path d="M276 137.243V140.681C267.532 140.681 263.141 136.305 259.377 132.241C255.614 128.489 252.164 124.738 245.264 124.738C238.364 124.738 234.914 128.176 231.15 132.241C227.386 136.305 222.995 140.681 214.527 140.681C206.059 140.681 201.668 136.305 197.905 132.241C194.455 128.489 191.005 125.05 184.105 125.05C177.205 125.05 173.755 128.489 169.991 132.553C166.227 136.305 161.836 140.681 153.368 140.681C144.9 140.681 140.509 136.305 136.745 132.241C132.982 128.489 129.532 124.738 122.632 124.738C115.732 124.738 112.282 128.176 108.518 132.241C104.755 136.305 100.364 140.681 91.8955 140.681C83.4273 140.681 79.0364 136.305 75.2727 132.241C71.5091 128.489 68.0591 124.738 61.1591 124.738C54.2591 124.738 50.8091 128.176 47.0455 132.241C43.2818 136.305 38.8909 140.681 30.4227 140.681C21.9545 140.681 17.5636 136.305 13.8 132.241C10.35 128.489 6.9 125.05 0 125.05V121.611C8.46818 121.611 12.8591 125.988 16.6227 130.052C20.3864 133.804 23.8364 137.555 30.7364 137.555C37.6364 137.555 41.0864 134.116 44.85 130.052C48.6136 125.988 53.0045 121.611 61.4727 121.611C69.9409 121.611 74.3318 125.988 78.0955 130.052C81.8591 133.804 85.3091 137.555 92.2091 137.555C99.1091 137.555 102.559 134.116 106.323 130.052C110.086 125.988 114.477 121.611 122.945 121.611C131.414 121.611 135.805 125.988 139.568 130.052C143.332 133.804 146.782 137.555 153.682 137.555C160.582 137.555 164.032 134.116 167.795 130.052C171.559 125.988 175.95 121.611 184.418 121.611C192.886 121.611 197.277 125.988 201.041 130.052C204.805 133.804 208.255 137.555 215.155 137.555C222.055 137.555 225.505 134.116 229.268 130.052C233.032 125.988 237.423 121.611 245.891 121.611C254.359 121.611 258.75 125.988 262.514 130.052C265.65 133.804 269.1 137.243 276 137.243Z" fill="#C83C32"/>
<path d="M276 121.924V125.363C267.532 125.363 263.141 120.986 259.377 116.922C255.614 113.17 252.164 109.419 245.264 109.419C238.364 109.419 234.914 112.858 231.15 116.922C227.386 120.986 222.995 125.363 214.527 125.363C206.059 125.363 201.668 120.986 197.905 116.922C194.141 113.17 190.691 109.419 183.791 109.419C176.891 109.419 173.441 112.858 169.677 116.922C165.914 120.986 161.523 125.363 153.055 125.363C144.586 125.363 140.196 120.986 136.432 116.922C132.668 113.17 129.218 109.419 122.318 109.419C115.418 109.419 111.968 112.858 108.205 116.922C104.441 120.986 100.05 125.363 91.5819 125.363C83.1137 125.363 78.7228 120.986 74.9592 116.922C71.1955 113.17 67.7455 109.419 60.8455 109.419C53.9455 109.419 50.4955 112.858 46.7319 116.922C42.9683 120.986 38.5773 125.363 30.1092 125.363C21.641 125.363 17.2501 120.986 13.4864 116.922C9.7228 113.17 6.2728 109.419 -0.627197 109.419V106.293C7.84098 106.293 12.2319 110.669 15.9955 114.733C20.3864 118.485 23.8364 121.924 30.7364 121.924C37.6364 121.924 41.0864 118.485 44.8501 114.421C48.6137 110.357 53.0046 105.98 61.4728 105.98C69.941 105.98 74.3319 110.357 78.0955 114.421C81.8592 118.172 85.3092 121.924 92.2092 121.924C99.1092 121.924 102.559 118.485 106.323 114.421C110.086 110.357 114.477 105.98 122.946 105.98C131.414 105.98 135.805 110.357 139.568 114.421C143.332 118.172 146.782 121.924 153.682 121.924C160.582 121.924 164.032 118.485 167.796 114.421C171.559 110.357 175.95 105.98 184.418 105.98C192.886 105.98 197.277 110.357 201.041 114.421C204.805 118.172 208.255 121.924 215.155 121.924C222.055 121.924 225.505 118.485 229.268 114.421C233.032 110.357 237.423 105.98 245.891 105.98C254.359 105.98 258.75 110.357 262.514 114.421C265.65 118.485 269.1 121.924 276 121.924Z" fill="#C83C32"/>
<path d="M276 106.918V110.357C267.532 110.357 263.141 105.98 259.377 101.916C255.614 98.1643 252.164 94.4128 245.264 94.4128C238.364 94.4128 234.914 97.8516 231.15 101.916C227.386 105.98 222.995 110.357 214.527 110.357C206.059 110.357 201.668 105.98 197.905 101.916C194.141 98.1643 190.691 94.4128 183.791 94.4128C176.891 94.4128 173.441 97.8516 169.677 101.916C165.914 105.98 161.523 110.357 153.055 110.357C144.586 110.357 140.196 105.98 136.432 101.916C132.668 98.1643 129.218 94.4128 122.318 94.4128C115.418 94.4128 111.968 97.8516 108.205 101.916C104.441 105.98 100.05 110.357 91.5819 110.357C83.1137 110.357 78.7228 105.98 74.9592 101.916C71.1955 98.1643 67.7455 94.4128 60.8455 94.4128C53.9455 94.4128 50.4955 97.8516 46.7319 101.916C42.9683 105.98 38.5773 110.357 30.1092 110.357C21.641 110.357 17.2501 105.98 13.4864 101.916C9.7228 98.1643 6.2728 94.4128 -0.627197 94.4128V90.9739C7.84098 90.9739 12.2319 95.3506 15.9955 99.4148C19.7592 103.166 23.2092 106.918 30.1092 106.918C37.0092 106.918 40.4592 103.479 44.2228 99.4148C47.9864 95.3506 52.3773 90.9739 60.8455 90.9739C69.3137 90.9739 73.7046 95.3506 77.4683 99.4148C81.2319 103.166 84.6819 106.918 91.5819 106.918C98.4819 106.918 101.932 103.479 105.696 99.4148C109.459 95.3506 113.85 90.9739 122.318 90.9739C130.786 90.9739 135.177 95.3506 138.941 99.4148C142.705 103.166 146.155 106.918 153.055 106.918C159.955 106.918 163.405 103.479 167.168 99.4148C170.932 95.3506 175.323 90.9739 183.791 90.9739C192.259 90.9739 196.65 95.3506 200.414 99.4148C204.177 103.166 207.627 106.918 214.527 106.918C221.427 106.918 224.877 103.479 228.641 99.4148C232.405 95.3506 236.795 90.9739 245.264 90.9739C253.732 90.9739 258.123 95.3506 261.886 99.4148C265.65 103.166 269.1 106.918 276 106.918Z" fill="#C83C32"/>
<path d="M276 91.5991V95.038C267.532 95.038 263.141 90.6613 259.377 86.5972C255.614 82.8457 252.164 79.0941 245.264 79.0941C238.364 79.0941 234.914 82.533 231.15 86.5972C227.386 90.6613 222.995 95.038 214.527 95.038C206.059 95.038 201.668 90.6613 197.905 86.5972C194.141 82.8457 190.691 79.0941 183.791 79.0941C176.891 79.0941 173.441 82.533 169.677 86.5972C165.914 90.6613 161.523 95.038 153.055 95.038C144.586 95.038 140.196 90.6613 136.432 86.5972C132.668 82.8457 129.218 79.0941 122.318 79.0941C115.418 79.0941 111.968 82.533 108.205 86.5972C104.441 90.6613 100.05 95.038 91.5819 95.038C83.1137 95.038 78.7228 90.6613 74.9592 86.5972C71.1955 82.8457 67.7455 79.0941 60.8455 79.0941C53.9455 79.0941 50.4955 82.533 46.7319 86.5972C42.9683 90.6613 38.5773 95.038 30.1092 95.038C21.641 95.038 17.2501 90.6613 13.4864 86.5972C9.7228 82.8457 6.2728 79.0941 -0.627197 79.0941V75.6553C7.84098 75.6553 12.2319 80.032 15.9955 84.0961C19.7592 87.8476 23.2092 91.5991 30.1092 91.5991C37.0092 91.5991 40.4592 88.1603 44.2228 84.0961C47.9864 80.032 52.3773 75.6553 60.8455 75.6553C69.3137 75.6553 73.7046 80.032 77.4683 84.0961C81.2319 87.8476 84.6819 91.5991 91.5819 91.5991C98.4819 91.5991 101.932 88.1603 105.696 84.0961C109.459 80.032 113.85 75.6553 122.318 75.6553C130.786 75.6553 135.177 80.032 138.941 84.0961C142.705 87.8476 146.155 91.5991 153.055 91.5991C159.955 91.5991 163.405 88.1603 167.168 84.0961C170.932 80.032 175.323 75.6553 183.791 75.6553C192.259 75.6553 196.65 80.032 200.414 84.0961C204.177 87.8476 207.627 91.5991 214.527 91.5991C221.427 91.5991 224.877 88.1603 228.641 84.0961C232.405 80.032 236.795 75.6553 245.264 75.6553C253.732 75.6553 258.123 80.032 261.886 84.0961C265.65 88.1603 269.1 91.5991 276 91.5991Z" fill="#C83C32"/>
<path d="M276 76.5932V80.0321C267.532 80.0321 263.141 75.6554 259.377 71.5912C255.614 67.8397 252.164 64.0882 245.264 64.0882C238.364 64.0882 234.914 67.5271 231.15 71.5912C227.386 75.6554 222.995 80.0321 214.527 80.0321C206.059 80.0321 201.668 75.6554 197.905 71.5912C194.141 67.8397 190.691 64.0882 183.791 64.0882C176.891 64.0882 173.441 67.5271 169.677 71.5912C165.914 75.6554 161.523 80.0321 153.055 80.0321C144.586 80.0321 140.196 75.6554 136.432 71.5912C132.668 67.8397 129.218 64.0882 122.318 64.0882C115.418 64.0882 111.968 67.5271 108.205 71.5912C104.441 75.6554 100.05 80.0321 91.5819 80.0321C83.1137 80.0321 78.7228 75.6554 74.9592 71.5912C71.1955 67.8397 67.7455 64.0882 60.8455 64.0882C53.9455 64.0882 50.4955 67.5271 46.7319 71.5912C42.9683 75.6554 38.5773 80.0321 30.1092 80.0321C21.641 80.0321 17.2501 75.6554 13.4864 71.5912C9.7228 67.8397 6.2728 64.0882 -0.627197 64.0882V60.6494C7.84098 60.6494 12.2319 65.0261 15.9955 69.0902C19.7592 72.8417 23.2092 76.5932 30.1092 76.5932C37.0092 76.5932 40.4592 73.1544 44.2228 69.0902C47.9864 65.0261 52.3773 60.6494 60.8455 60.6494C69.3137 60.6494 73.7046 65.0261 77.4683 69.0902C81.2319 72.8417 84.6819 76.5932 91.5819 76.5932C98.4819 76.5932 101.932 73.1544 105.696 69.0902C109.459 65.0261 113.85 60.6494 122.318 60.6494C130.786 60.6494 135.177 65.0261 138.941 69.0902C142.705 72.8417 146.155 76.5932 153.055 76.5932C159.955 76.5932 163.405 73.1544 167.168 69.0902C170.932 65.0261 175.323 60.6494 183.791 60.6494C192.259 60.6494 196.65 65.0261 200.414 69.0902C204.177 72.8417 207.627 76.5932 214.527 76.5932C221.427 76.5932 224.877 73.1544 228.641 69.0902C232.405 65.0261 236.795 60.6494 245.264 60.6494C253.732 60.6494 258.123 65.0261 261.886 69.0902C265.65 72.8417 269.1 76.5932 276 76.5932Z" fill="#C83C32"/>
<path d="M276 61.2746V64.7135C267.532 64.7135 263.141 60.3367 259.377 56.2726C255.614 52.5211 252.164 48.7696 245.264 48.7696C238.364 48.7696 234.914 52.2084 231.15 56.2726C227.386 60.3367 222.995 64.7135 214.527 64.7135C206.059 64.7135 201.668 60.3367 197.905 56.2726C194.141 52.5211 190.691 48.7696 183.791 48.7696C176.891 48.7696 173.441 52.2084 169.677 56.2726C165.914 60.3367 161.523 64.7135 153.055 64.7135C144.586 64.7135 140.196 60.3367 136.432 56.2726C132.668 52.5211 129.218 48.7696 122.318 48.7696C115.418 48.7696 111.968 52.2084 108.205 56.2726C104.441 60.3367 100.05 64.7135 91.5819 64.7135C83.1137 64.7135 78.7228 60.3367 74.9592 56.2726C71.1955 52.5211 67.7455 48.7696 60.8455 48.7696C53.9455 48.7696 50.4955 52.2084 46.7319 56.2726C42.9683 60.3367 38.5773 64.7135 30.1092 64.7135C21.641 64.7135 17.2501 60.3367 13.4864 56.2726C9.7228 52.5211 6.2728 48.7696 -0.627197 48.7696V45.3307C7.84098 45.3307 12.2319 49.7074 15.9955 53.7716C19.7592 57.5231 23.2092 61.2746 30.1092 61.2746C37.0092 61.2746 40.4592 57.8357 44.2228 53.7716C47.9864 49.7074 52.3773 45.3307 60.8455 45.3307C69.3137 45.3307 73.7046 49.7074 77.4683 53.7716C81.2319 57.5231 84.6819 61.2746 91.5819 61.2746C98.4819 61.2746 101.932 57.8357 105.696 53.7716C109.459 49.7074 113.85 45.3307 122.318 45.3307C130.786 45.3307 135.177 49.7074 138.941 53.7716C142.705 57.5231 146.155 61.2746 153.055 61.2746C159.955 61.2746 163.405 57.8357 167.168 53.7716C170.932 49.7074 175.323 45.3307 183.791 45.3307C192.259 45.3307 196.65 49.7074 200.414 53.7716C204.177 57.5231 207.627 61.2746 214.527 61.2746C221.427 61.2746 224.877 57.8357 228.641 53.7716C232.405 49.7074 236.795 45.3307 245.264 45.3307C253.732 45.3307 258.123 49.7074 261.886 53.7716C265.65 57.8357 269.1 61.2746 276 61.2746Z" fill="#C83C32"/>
<path d="M276 46.2684V49.7073C267.532 49.7073 263.141 45.3305 259.377 41.2664C255.614 37.5149 252.164 33.7634 245.264 33.7634C238.364 33.7634 234.914 37.2023 231.15 41.2664C227.386 45.3305 222.995 49.7073 214.527 49.7073C206.059 49.7073 201.668 45.3305 197.905 41.2664C194.141 37.5149 190.691 33.7634 183.791 33.7634C176.891 33.7634 173.441 37.2023 169.677 41.2664C165.914 45.3305 161.523 49.7073 153.055 49.7073C144.586 49.7073 140.195 45.3305 136.432 41.2664C132.668 37.5149 129.218 33.7634 122.318 33.7634C115.418 33.7634 111.968 37.2023 108.205 41.2664C104.441 45.3305 100.05 49.7073 91.5818 49.7073C83.1136 49.7073 78.7227 45.3305 74.9591 41.2664C71.1955 37.5149 67.7455 33.7634 60.8455 33.7634C53.9455 33.7634 50.4955 37.2023 46.7318 41.2664C42.9682 45.3305 38.5773 49.7073 30.1091 49.7073C21.6409 49.7073 17.25 45.3305 13.4864 41.2664C10.35 37.5149 6.9 33.7634 0 33.7634V30.3245C8.46818 30.3245 12.8591 34.7013 16.6227 38.7654C20.3864 42.5169 23.8364 46.2684 30.7364 46.2684C37.6364 46.2684 41.0864 42.8295 44.85 38.7654C48.6136 34.7013 53.0045 30.3245 61.4727 30.3245C69.9409 30.3245 74.3318 34.7013 78.0955 38.7654C81.8591 42.5169 85.3091 46.2684 92.2091 46.2684C99.1091 46.2684 102.559 42.8295 106.323 38.7654C110.086 34.7013 114.477 30.3245 122.945 30.3245C131.414 30.3245 135.805 34.7013 139.568 38.7654C143.332 42.5169 146.782 46.2684 153.682 46.2684C160.582 46.2684 164.032 42.8295 167.795 38.7654C171.559 34.7013 175.95 30.3245 184.418 30.3245C192.886 30.3245 197.277 34.7013 201.041 38.7654C204.805 42.5169 208.255 46.2684 215.155 46.2684C222.055 46.2684 225.505 42.8295 229.268 38.7654C233.032 34.7013 237.423 30.3245 245.891 30.3245C254.359 30.3245 258.75 34.7013 262.514 38.7654C265.65 42.5169 269.1 46.2684 276 46.2684Z" fill="#C83C32"/>
<path d="M276 30.9499V34.3888C267.532 34.3888 263.141 30.012 259.377 25.9479C255.927 22.1964 252.477 18.7575 245.577 18.7575C238.677 18.7575 235.227 22.1964 231.464 26.2605C227.7 30.3247 223.309 34.7014 214.841 34.7014C206.373 34.7014 201.982 30.3247 198.218 26.2605C194.455 22.1964 191.005 18.7575 184.105 18.7575C177.205 18.7575 173.755 22.1964 169.991 26.2605C166.227 30.012 161.836 34.3888 153.368 34.3888C144.9 34.3888 140.509 30.012 136.745 25.9479C132.982 22.1964 129.532 18.7575 122.632 18.7575C115.732 18.7575 112.282 22.1964 108.518 26.2605C104.755 30.012 100.364 34.3888 91.8955 34.3888C83.4273 34.3888 79.0364 30.012 75.2727 25.9479C71.8227 22.1964 68.3727 18.7575 61.4727 18.7575C54.5727 18.7575 51.1227 22.1964 47.3591 26.2605C43.2818 30.012 39.2045 34.3888 30.7364 34.3888C22.2682 34.3888 17.8773 30.012 14.1136 25.9479C10.35 22.1964 6.9 18.7575 0 18.7575V15.3187C8.46818 15.3187 12.8591 19.6954 16.6227 23.7595C20.3864 27.511 23.8364 31.2626 30.7364 31.2626C37.6364 31.2626 41.0864 27.8237 44.85 23.7595C48.6136 19.6954 53.0045 15.3187 61.4727 15.3187C69.9409 15.3187 74.3318 19.6954 78.0955 23.7595C81.8591 27.511 85.3091 31.2626 92.2091 31.2626C99.1091 31.2626 102.559 27.8237 106.323 23.7595C110.086 19.6954 114.477 15.3187 122.945 15.3187C131.414 15.3187 135.805 19.6954 139.568 23.7595C143.332 27.511 146.782 31.2626 153.682 31.2626C160.582 31.2626 164.032 27.8237 167.795 23.7595C171.559 19.6954 175.95 15.3187 184.418 15.3187C192.886 15.3187 197.277 19.6954 201.041 23.7595C204.805 27.511 208.255 31.2626 215.155 31.2626C222.055 31.2626 225.505 27.8237 229.268 23.7595C233.032 19.6954 237.423 15.3187 245.891 15.3187C254.359 15.3187 258.75 19.6954 262.514 23.7595C265.65 27.511 269.1 30.9499 276 30.9499Z" fill="#C83C32"/>
<path d="M276 15.6313V19.0701C267.532 19.0701 263.141 14.6934 259.377 10.6293C255.614 6.87776 252.164 3.12625 245.264 3.12625C238.364 3.12625 234.914 6.56513 231.15 10.6293C227.386 14.6934 222.995 19.0701 214.527 19.0701C206.059 19.0701 201.668 14.6934 197.905 10.6293C194.141 6.87776 190.691 3.12625 183.791 3.12625C176.891 3.12625 173.441 6.56513 169.677 10.6293C165.914 14.6934 161.523 19.0701 153.055 19.0701C144.586 19.0701 140.195 14.6934 136.432 10.6293C132.668 6.87776 129.218 3.12625 122.318 3.12625C115.418 3.12625 111.968 6.56513 108.205 10.6293C104.441 14.6934 100.05 19.0701 91.5818 19.0701C83.1136 19.0701 78.7227 14.6934 74.9591 10.6293C71.1955 6.87776 67.7455 3.12625 60.8455 3.12625C53.9455 3.12625 50.4955 6.56513 46.7318 10.6293C42.9682 14.6934 38.5773 19.0701 30.1091 19.0701C21.6409 19.0701 17.25 14.6934 13.4864 10.6293C10.35 7.19038 6.9 3.43888 0 3.43888V0C8.46818 0 12.8591 4.37675 16.6227 8.44088C20.3864 12.1924 23.8364 15.6313 30.7364 15.6313C37.6364 15.6313 41.0864 12.1924 44.85 8.12826C48.6136 4.37675 53.0045 0 61.4727 0C69.9409 0 74.3318 4.37675 78.0955 8.44088C81.5455 12.1924 84.9955 15.6313 91.8955 15.6313C98.7955 15.6313 102.245 12.1924 106.009 8.12826C110.086 4.37675 114.164 0 122.632 0C131.1 0 135.491 4.37675 139.255 8.44088C143.018 12.1924 146.468 15.6313 153.368 15.6313C160.268 15.6313 163.718 12.1924 167.482 8.12826C171.245 4.37675 175.636 0 184.105 0C192.573 0 196.964 4.37675 200.727 8.44088C204.491 12.1924 207.941 15.6313 214.841 15.6313C221.741 15.6313 225.191 12.1924 228.955 8.12826C232.718 4.37675 237.109 0 245.577 0C254.045 0 258.436 4.37675 262.2 8.44088C265.65 12.1924 269.1 15.6313 276 15.6313Z" fill="#C83C32"/>
</g>
<defs>
<clipPath id="clip0">
<rect width="276" height="156" fill="white"/>
</clipPath>
</defs>
</svg>
