<svg width="407" height="1067" viewBox="0 0 407 1067" fill="none" xmlns="http://www.w3.org/2000/svg">
<path fill-rule="evenodd" clip-rule="evenodd" d="M533.5 1067C828.144 1067 1067 828.144 1067 533.5C1067 238.856 828.144 0 533.5 0C238.856 0 0 238.856 0 533.5C0 828.144 238.856 1067 533.5 1067ZM533.5 975C777.334 975 975 777.334 975 533.5C975 289.666 777.334 92 533.5 92C289.666 92 92 289.666 92 533.5C92 777.334 289.666 975 533.5 975Z" fill="#C83661"/>
<path fill-rule="evenodd" clip-rule="evenodd" d="M533.5 911C741.988 911 911 741.988 911 533.5C911 325.012 741.988 156 533.5 156C325.012 156 156 325.012 156 533.5C156 741.988 325.012 911 533.5 911ZM533.5 829C696.7 829 829 696.7 829 533.5C829 370.3 696.7 238 533.5 238C370.3 238 238 370.3 238 533.5C238 696.7 370.3 829 533.5 829Z" fill="#C83C32"/>
</svg>
