<svg width="444" height="883" viewBox="0 0 444 883" fill="none" xmlns="http://www.w3.org/2000/svg">
<path fill-rule="evenodd" clip-rule="evenodd" d="M78.8013 873.028L444 662.211V220.789L61.5 0L-321 220.789V662.211L61.5 883L78.8013 873.028ZM218.147 712.851L61.5 803.223L-251.795 622.323V260.522L61.5 79.6211L374.795 260.522V622.323L218.147 712.851Z" fill="#C73D1B"/>
<path fill-rule="evenodd" clip-rule="evenodd" d="M78.6455 717.681L309.486 584.46V298.54L61.5 155.347L-186.486 298.54V584.46L61.5 727.653L78.6455 717.681ZM151.124 596.302L61.6559 648.032L-117.125 544.883V338.117L61.6559 234.968L240.281 338.117V544.883L151.124 596.302Z" fill="#D88520"/>
<path fill-rule="evenodd" clip-rule="evenodd" d="M78.8014 562.334L118.236 539.585L174.972 506.864V376.292L118.236 343.571L61.5 310.85L4.76407 343.571L-51.9719 376.292V506.864L4.76407 539.585L61.5 572.306L78.8014 562.334ZM83.6333 479.908L61.5 492.685L39.3668 479.908H39.2109L17.2335 467.287V415.869L39.2109 403.248H39.3668L61.5 390.471L83.6333 403.248H83.7892L105.767 415.869V467.287L83.6333 479.908Z" fill="#C73D1B"/>
</svg>
