<svg width="669" height="433" viewBox="0 0 669 433" fill="none" xmlns="http://www.w3.org/2000/svg">
<path fill-rule="evenodd" clip-rule="evenodd" d="M488.014 -429.538C469.998 -431.823 451.637 -433 433 -433C422.577 -433 412.239 -432.632 402 -431.907V355.836L356.707 426.3C381.474 430.703 406.969 433 433 433C451.637 433 469.998 431.823 488.014 429.538V-429.538ZM579 407.769V-407.769C746.305 -347.859 866 -187.908 866 0C866 187.908 746.305 347.859 579 407.769ZM0 0C0 -196.783 131.27 -362.907 311.019 -415.581V215.54L210.68 371.645C84.4722 295.984 0 157.857 0 0Z" fill="#F18505"/>
</svg>
